<mxfile host="app.diagrams.net" modified="2022-11-19T15:34:00.877Z" agent="5.0 (Windows NT 10.0; Win64; x64) AppleWebKit/537.36 (KHTML, like Gecko) Chrome/105.0.0.0 Safari/537.36 OPR/91.0.4516.106" etag="E9vGv-16Yrfr6aY17Bfz" version="20.5.3" type="github">
  <diagram name="Page-1" id="b98fa263-6416-c6ec-5b7d-78bf54ef71d0">
    <mxGraphModel dx="688" dy="427" grid="1" gridSize="10" guides="1" tooltips="1" connect="1" arrows="1" fold="1" page="1" pageScale="1.5" pageWidth="1169" pageHeight="826" background="none" math="0" shadow="0">
      <root>
        <mxCell id="0" style=";html=1;" />
        <mxCell id="1" style=";html=1;" parent="0" />
        <mxCell id="GFAJwvtVWzmdnU1n2fmv-5" style="edgeStyle=orthogonalEdgeStyle;rounded=0;orthogonalLoop=1;jettySize=auto;html=1;" edge="1" parent="1" source="GFAJwvtVWzmdnU1n2fmv-1" target="GFAJwvtVWzmdnU1n2fmv-3">
          <mxGeometry relative="1" as="geometry">
            <Array as="points">
              <mxPoint x="920" y="490" />
              <mxPoint x="920" y="490" />
            </Array>
          </mxGeometry>
        </mxCell>
        <mxCell id="GFAJwvtVWzmdnU1n2fmv-8" style="orthogonalLoop=1;jettySize=auto;html=1;rounded=0;exitX=0.5;exitY=1;exitDx=0;exitDy=0;" edge="1" parent="1" source="GFAJwvtVWzmdnU1n2fmv-1" target="GFAJwvtVWzmdnU1n2fmv-4">
          <mxGeometry relative="1" as="geometry" />
        </mxCell>
        <mxCell id="GFAJwvtVWzmdnU1n2fmv-9" style="rounded=0;orthogonalLoop=1;jettySize=auto;html=1;exitX=0.5;exitY=1;exitDx=0;exitDy=0;" edge="1" parent="1" source="GFAJwvtVWzmdnU1n2fmv-1" target="GFAJwvtVWzmdnU1n2fmv-2">
          <mxGeometry relative="1" as="geometry" />
        </mxCell>
        <mxCell id="GFAJwvtVWzmdnU1n2fmv-1" value="Chủ nhà hàng" style="rounded=1;whiteSpace=wrap;html=1;" vertex="1" parent="1">
          <mxGeometry x="860" y="390" width="120" height="60" as="geometry" />
        </mxCell>
        <mxCell id="GFAJwvtVWzmdnU1n2fmv-12" style="edgeStyle=none;rounded=0;orthogonalLoop=1;jettySize=auto;html=1;exitX=0.5;exitY=1;exitDx=0;exitDy=0;entryX=0.5;entryY=0;entryDx=0;entryDy=0;" edge="1" parent="1" source="GFAJwvtVWzmdnU1n2fmv-2">
          <mxGeometry relative="1" as="geometry">
            <mxPoint x="710" y="640" as="targetPoint" />
          </mxGeometry>
        </mxCell>
        <mxCell id="GFAJwvtVWzmdnU1n2fmv-2" value="Bộ phận bếp" style="rounded=1;whiteSpace=wrap;html=1;" vertex="1" parent="1">
          <mxGeometry x="650" y="530" width="120" height="60" as="geometry" />
        </mxCell>
        <mxCell id="GFAJwvtVWzmdnU1n2fmv-22" style="edgeStyle=none;rounded=0;orthogonalLoop=1;jettySize=auto;html=1;entryX=0.5;entryY=0;entryDx=0;entryDy=0;" edge="1" parent="1" source="GFAJwvtVWzmdnU1n2fmv-3" target="GFAJwvtVWzmdnU1n2fmv-18">
          <mxGeometry relative="1" as="geometry" />
        </mxCell>
        <mxCell id="GFAJwvtVWzmdnU1n2fmv-3" value="Bộ phận thu ngân" style="rounded=1;whiteSpace=wrap;html=1;" vertex="1" parent="1">
          <mxGeometry x="860" y="530" width="120" height="60" as="geometry" />
        </mxCell>
        <mxCell id="GFAJwvtVWzmdnU1n2fmv-30" style="edgeStyle=none;rounded=0;orthogonalLoop=1;jettySize=auto;html=1;entryX=0.5;entryY=0;entryDx=0;entryDy=0;" edge="1" parent="1" source="GFAJwvtVWzmdnU1n2fmv-4" target="GFAJwvtVWzmdnU1n2fmv-24">
          <mxGeometry relative="1" as="geometry" />
        </mxCell>
        <mxCell id="GFAJwvtVWzmdnU1n2fmv-31" style="edgeStyle=none;rounded=0;orthogonalLoop=1;jettySize=auto;html=1;entryX=0.5;entryY=0;entryDx=0;entryDy=0;exitX=0.5;exitY=1;exitDx=0;exitDy=0;" edge="1" parent="1" source="GFAJwvtVWzmdnU1n2fmv-4" target="GFAJwvtVWzmdnU1n2fmv-23">
          <mxGeometry relative="1" as="geometry" />
        </mxCell>
        <mxCell id="GFAJwvtVWzmdnU1n2fmv-32" style="edgeStyle=none;rounded=0;orthogonalLoop=1;jettySize=auto;html=1;entryX=0.5;entryY=0;entryDx=0;entryDy=0;exitX=0.5;exitY=1;exitDx=0;exitDy=0;" edge="1" parent="1" source="GFAJwvtVWzmdnU1n2fmv-4" target="GFAJwvtVWzmdnU1n2fmv-25">
          <mxGeometry relative="1" as="geometry" />
        </mxCell>
        <mxCell id="GFAJwvtVWzmdnU1n2fmv-4" value="Quản lý nhà hàng" style="rounded=1;whiteSpace=wrap;html=1;" vertex="1" parent="1">
          <mxGeometry x="1080" y="530" width="120" height="60" as="geometry" />
        </mxCell>
        <mxCell id="GFAJwvtVWzmdnU1n2fmv-14" style="edgeStyle=none;rounded=0;orthogonalLoop=1;jettySize=auto;html=1;entryX=0.5;entryY=0;entryDx=0;entryDy=0;" edge="1" parent="1">
          <mxGeometry relative="1" as="geometry">
            <mxPoint x="920" y="630" as="sourcePoint" />
            <mxPoint x="920" y="630" as="targetPoint" />
          </mxGeometry>
        </mxCell>
        <mxCell id="GFAJwvtVWzmdnU1n2fmv-17" value="Đầu bếp" style="rounded=0;whiteSpace=wrap;html=1;" vertex="1" parent="1">
          <mxGeometry x="675" y="640" width="70" height="30" as="geometry" />
        </mxCell>
        <mxCell id="GFAJwvtVWzmdnU1n2fmv-18" value="NV kế toán" style="rounded=0;whiteSpace=wrap;html=1;" vertex="1" parent="1">
          <mxGeometry x="880" y="640" width="80" height="30" as="geometry" />
        </mxCell>
        <mxCell id="GFAJwvtVWzmdnU1n2fmv-19" style="edgeStyle=none;rounded=0;orthogonalLoop=1;jettySize=auto;html=1;entryX=0.5;entryY=0;entryDx=0;entryDy=0;" edge="1" parent="1" source="GFAJwvtVWzmdnU1n2fmv-18" target="GFAJwvtVWzmdnU1n2fmv-18">
          <mxGeometry relative="1" as="geometry" />
        </mxCell>
        <mxCell id="GFAJwvtVWzmdnU1n2fmv-27" style="edgeStyle=none;rounded=0;orthogonalLoop=1;jettySize=auto;html=1;exitX=0.5;exitY=1;exitDx=0;exitDy=0;" edge="1" parent="1" source="GFAJwvtVWzmdnU1n2fmv-23">
          <mxGeometry relative="1" as="geometry">
            <mxPoint x="1075" y="668" as="targetPoint" />
          </mxGeometry>
        </mxCell>
        <mxCell id="GFAJwvtVWzmdnU1n2fmv-23" value="NV lễ tân" style="rounded=0;whiteSpace=wrap;html=1;" vertex="1" parent="1">
          <mxGeometry x="1010" y="640" width="70" height="30" as="geometry" />
        </mxCell>
        <mxCell id="GFAJwvtVWzmdnU1n2fmv-24" value="NV bồi bàn" style="rounded=0;whiteSpace=wrap;html=1;" vertex="1" parent="1">
          <mxGeometry x="1100" y="640" width="80" height="30" as="geometry" />
        </mxCell>
        <mxCell id="GFAJwvtVWzmdnU1n2fmv-25" value="NV bảo vệ" style="rounded=0;whiteSpace=wrap;html=1;" vertex="1" parent="1">
          <mxGeometry x="1200" y="640" width="80" height="30" as="geometry" />
        </mxCell>
      </root>
    </mxGraphModel>
  </diagram>
</mxfile>
